# xmcd
#
# Track frame offsets:
#	150
#	32182
#	68630
#	121034
#	154075
#	174548
#	190817
#	222943
#
# Disc length: 3441 seconds
#
# Revision: 0
# Processed by: cddbd v1.5.2PL0 Copyright (c) Steve Scherf et al.
# Submitted via: audiograbber 1.83.01
#
DISCID=670d6f08
DTITLE=Grateful Dead - 92-06-11 Knickerbocker Arena, Albany NY
DYEAR=1900
DGENRE=
TTITLE0=Bertha
TTITLE1=New Minglewood Blues
TTITLE2=Row Jimmy
TTITLE3=Queen Jane Approximately
TTITLE4=Dire Wolf
TTITLE5=Beat It On Down The Line
TTITLE6=Loose Lucy
TTITLE7=The Music Never Stopped
EXTD=
EXTT0=
EXTT1=
EXTT2=
EXTT3=
EXTT4=
EXTT5=
EXTT6=
EXTT7=
PLAYORDER=
